<svg width="16" height="16" viewBox="0 0 16 16" fill="none" xmlns="http://www.w3.org/2000/svg">
<path d="M5.33337 10.6667V12.5333C5.33337 13.2801 5.33337 13.6534 5.4787 13.9387C5.60653 14.1895 5.8105 14.3935 6.06139 14.5214C6.3466 14.6667 6.71997 14.6667 7.46671 14.6667H12.5334C13.2801 14.6667 13.6535 14.6667 13.9387 14.5214C14.1896 14.3935 14.3936 14.1895 14.5214 13.9387C14.6667 13.6534 14.6667 13.2801 14.6667 12.5333V7.46668C14.6667 6.71994 14.6667 6.34657 14.5214 6.06136C14.3936 5.81047 14.1896 5.6065 13.9387 5.47867C13.6535 5.33334 13.2801 5.33334 12.5334 5.33334H10.6667M3.46671 10.6667H8.53337C9.28011 10.6667 9.65348 10.6667 9.93869 10.5214C10.1896 10.3935 10.3936 10.1895 10.5214 9.93866C10.6667 9.65345 10.6667 9.28008 10.6667 8.53334V3.46668C10.6667 2.71994 10.6667 2.34657 10.5214 2.06136C10.3936 1.81047 10.1896 1.6065 9.93869 1.47867C9.65348 1.33334 9.28011 1.33334 8.53337 1.33334H3.46671C2.71997 1.33334 2.3466 1.33334 2.06139 1.47867C1.8105 1.6065 1.60653 1.81047 1.4787 2.06136C1.33337 2.34657 1.33337 2.71994 1.33337 3.46668V8.53334C1.33337 9.28008 1.33337 9.65345 1.4787 9.93866C1.60653 10.1895 1.8105 10.3935 2.06139 10.5214C2.3466 10.6667 2.71997 10.6667 3.46671 10.6667Z" stroke="black" stroke-width="1.33333" stroke-linecap="round" stroke-linejoin="round"/>
</svg>
