<svg width="72" height="20" viewBox="0 0 72 20" fill="none" xmlns="http://www.w3.org/2000/svg">
<path d="M0.220656 8.96852C0.220656 12.9656 2.51836 15.2154 6.3718 15.2154C10.2252 15.2154 12.523 12.9656 12.523 8.96852V0.78295H9.43541V8.72918C9.43541 11.0987 8.43016 12.2715 6.44361 12.2715C4.43311 12.2715 3.42787 11.0987 3.42787 8.72918V0.78295H0.220656V8.96852ZM18.2962 15V0.78295H15.089V15H18.2962ZM23.8512 15V7.65213C24.4975 7.19738 25.1676 6.98197 25.8138 6.98197C26.867 6.98197 27.3935 7.55639 27.3935 8.70525V15H30.4811V9.01639C30.4811 8.68131 30.4571 8.22656 30.4332 7.65213C31.0794 7.19738 31.7496 6.98197 32.4437 6.98197C33.4968 6.98197 34.0234 7.55639 34.0234 8.70525V15H37.1109V8.05902C37.1109 5.49803 35.7227 4.25344 33.4968 4.25344C32.1804 4.25344 30.9837 4.78 29.9306 5.80918C29.3322 4.78 28.327 4.25344 26.867 4.25344C25.7899 4.25344 24.7847 4.63639 23.8512 5.37836V4.39705L20.7637 4.54066V15H23.8512ZM42.3368 15.2154C43.6054 15.2154 44.6585 14.8803 45.4962 14.1862V15H48.4162V8.4659C48.4162 5.66557 46.7647 4.25344 43.4617 4.25344C41.9539 4.25344 40.6614 4.51672 39.6083 5.01934L39.728 7.72393C40.6135 7.22131 41.6906 6.95803 43.007 6.95803C44.6585 6.95803 45.4004 7.43672 45.4004 8.65738V9.2318C44.7542 8.94459 43.9165 8.80098 42.9113 8.80098C40.3024 8.80098 38.7467 9.94984 38.7467 12.0561C38.7467 14.0666 40.0391 15.2154 42.3368 15.2154ZM43.3899 13.181C42.3368 13.181 41.8103 12.798 41.8103 12.0082C41.8103 11.1466 42.4326 10.7157 43.6532 10.7157C44.3234 10.7157 44.8978 10.8354 45.4004 11.0508V12.5587C44.8499 12.9656 44.1798 13.181 43.3899 13.181ZM55.1101 19.6433C58.8439 19.6433 60.639 18.2072 60.639 15.9813C60.639 13.8511 59.0115 12.6784 56.0197 12.6784C55.2777 12.6784 54.6075 12.7262 54.0092 12.798L55.0862 11.7449C57.7429 11.6252 59.3705 10.2131 59.3705 8.01115C59.3705 7.41279 59.2029 6.91016 58.8918 6.50328H60.4715V4.10984L56.5701 4.51672C56.0197 4.34918 55.3974 4.25344 54.7511 4.25344C51.9029 4.25344 50.1318 5.71344 50.1318 8.01115C50.1318 9.83016 51.3285 11.2423 53.339 11.6013L51.6397 13.2049V15.3351C52.6449 15.1197 53.8416 15.0239 55.2538 15.0239C57.1924 15.0239 57.7669 15.2633 57.7669 16.0292C57.7669 16.7951 57.1924 17.1541 55.3016 17.1541C54.2724 17.1541 53.2193 17.0344 52.1901 16.7711C51.161 16.5079 50.3951 16.1967 49.8924 15.8377L49.6531 18.4944C50.8738 19.2603 52.6928 19.6433 55.1101 19.6433ZM54.7511 9.66262C53.6262 9.66262 52.9321 8.96852 52.9321 8.01115C52.9321 6.98197 53.6262 6.33574 54.7511 6.33574C55.3016 6.33574 55.7564 6.50328 56.0675 6.81443C56.7377 7.41279 56.7377 8.60951 56.0675 9.20787C55.7324 9.51902 55.3016 9.66262 54.7511 9.66262ZM67.6224 15.2154C68.867 15.2154 70.4228 14.8803 71.2605 14.3298L71.1169 11.697C70.2313 12.2475 69.1542 12.5108 67.8378 12.5108C65.8991 12.5108 64.7742 11.8407 64.4631 10.4764H71.2126C71.2844 9.80623 71.3083 9.27967 71.3083 8.89672C71.3083 7.46066 70.8536 6.33574 69.968 5.49803C69.0824 4.66033 67.9336 4.25344 66.5214 4.25344C64.9896 4.25344 63.7211 4.75607 62.7159 5.76131C61.7346 6.74262 61.2319 8.05902 61.2319 9.68656C61.2319 13.1092 63.5775 15.2154 67.6224 15.2154ZM64.3434 8.72918C64.511 7.31705 65.3008 6.47934 66.5454 6.47934C67.7182 6.47934 68.4362 7.24525 68.4362 8.41803V8.72918H64.3434Z" fill="#2C55FE"/>
</svg>
